<svg width="170" height="32" viewBox="0 0 170 32" fill="none" xmlns="http://www.w3.org/2000/svg">
<path d="M68.3724 14.586C68.3724 9.70197 66.2081 3.39577 57.3288 3.39577H45.2762V25.586H57.3288C66.5198 25.586 68.3724 18.9944 68.3724 14.5876V14.586ZM53.6849 20.0392V8.64906H55.3833C57.4201 8.64906 59.5278 9.36175 59.5278 14.4796C59.5278 19.5974 57.2659 20.0602 55.3833 20.0602L53.6849 20.0392ZM78.0214 19.562C78.0214 16.7144 79.9103 15.1552 82.2509 15.1552C82.8018 15.1729 83.348 15.2584 83.8785 15.4116V8.75548C83.4582 8.6539 83.0285 8.6023 82.5956 8.59907C79.9606 8.59907 78.2685 10.6565 77.6625 12.7495H77.5287V8.97638H70.1417V25.5844H78.0214V19.562ZM90.7083 19.483H83.9147V25.6263H90.7587L90.7099 19.483H90.7083ZM103.959 25.5844L107.412 11.1338H107.623L111.259 25.5844H120.302L125.574 3.45866H118.039L115.374 17.5964H115.26L111.85 3.45866H103.787L100.305 17.5964H100.179L97.5429 3.45866H89.6631L94.7725 25.5844H103.957H103.959ZM146.183 20.3521H135.251V16.8998H145.549V11.832H135.251V8.6281H146.013V3.39577H126.835V25.586H146.23L146.181 20.3537L146.183 20.3521ZM169.95 19.6394C169.95 16.1517 167.187 14.6924 165.017 14.3716V14.2361C166.246 14.0781 167.376 13.4751 168.198 12.5366C169.018 11.5982 169.474 10.3905 169.477 9.13924C169.477 7.07533 168.223 3.36514 161.351 3.36514H148.157V25.5828H160.929C163.727 25.5828 170 25.27 170 19.6603L169.951 19.6394H169.95ZM156.128 7.89283H158.292C160.611 7.89283 161.273 9.10376 161.273 10.0293C161.273 10.663 160.992 12.1658 158.102 12.1658H156.128V7.89444V7.89283ZM156.128 21.0841V16.55H158.073C158.779 16.55 161.407 16.55 161.407 18.7993C161.407 19.5974 160.957 21.0841 158.256 21.0841H156.128ZM14.5113 9.77453L20.9318 6.15786L27.3871 9.80195C27.5476 9.35853 27.631 8.89254 27.6342 8.4201C27.6342 5.57255 24.6388 3.23775 20.9602 3.23775C17.2816 3.23775 14.2862 5.55804 14.2862 8.4201C14.2893 8.87964 14.3649 9.33757 14.5113 9.77292V9.77453ZM32.4209 13.675L36.4741 14.665L35.621 17.3771L41.7944 14.0378L31.8354 11.0693L32.4209 13.675ZM27.6358 31.7148L37.3194 19.8554L32.1533 16.7096L27.6358 31.7164V31.7148ZM26.981 4.15684L28.8352 6.12884L33.8092 0H26.7606L29.3893 1.63661L26.9794 4.15684H26.981ZM31.2592 9.38916L35.6713 8.49265L36.5811 11.724L38.7738 4.70506L29.9496 7.55261L31.2608 9.38916H31.2592ZM4.47505 19.8538L14.1587 31.7132L9.65528 16.7064L4.47505 19.8522V19.8538ZM5.32032 14.6634L9.37352 13.6734L9.9512 11.0677L0 14.0378L6.17346 17.3771L5.32032 14.665V14.6634ZM6.13096 8.49104L10.5368 9.38755L11.8542 7.551L3.03006 4.70506L5.22273 11.724L6.13254 8.49265L6.13096 8.49104ZM14.8213 4.15523L12.3894 1.635L15.0763 0H8.0277L13.0033 6.16431L14.8213 4.15684V4.15523ZM17.4579 10.1857L18.3394 13.525H18.3882L19.5797 9.96641H22.3422L23.603 13.525H23.6455L24.3507 10.2357L20.9318 8.2137L17.4579 10.1857ZM30.2424 13.6024L26.641 11.524L25.3439 15.5035H22.1297L20.9318 11.8513H20.8893L19.6694 15.5035H16.441L15.1377 11.5305L11.5426 13.5944C11.5426 13.5944 10.2314 18.2865 15.229 22.137C16.4977 23.227 17.9238 24.1155 19.4585 24.7717L19.2397 24.1026H22.5453L22.3265 24.8136C23.8659 24.1654 25.2936 23.2738 26.556 22.1725C31.5032 18.243 30.2629 13.6008 30.2629 13.6008H30.2424V13.6024ZM22.912 22.9561H18.8588L18.4212 21.6178H23.3543L22.9104 22.9561H22.912ZM23.751 20.4714H18.0781L17.6405 19.1331H24.1886L23.751 20.4714ZM24.5616 17.9866H17.2533L16.8157 16.6483H24.9913L24.5616 17.9866Z" fill="#69B42E"/>
</svg>
