<svg width="24" height="24" viewBox="0 0 24 24" fill="none" xmlns="http://www.w3.org/2000/svg">
<path d="M13.125 7.125C13.125 6.50368 12.6213 6 12 6C11.3787 6 10.875 6.50368 10.875 7.125C10.875 7.74632 11.3787 8.25 12 8.25C12.6213 8.25 13.125 7.74632 13.125 7.125Z" fill="#6D778B"/>
<path fill-rule="evenodd" clip-rule="evenodd" d="M12 18C12.4142 18 12.75 17.6642 12.75 17.25V11.25C12.75 10.8358 12.4142 10.5 12 10.5C11.5858 10.5 11.25 10.8358 11.25 11.25V17.25C11.25 17.6642 11.5858 18 12 18Z" fill="#6D778B"/>
<path fill-rule="evenodd" clip-rule="evenodd" d="M12 4.5C7.85786 4.5 4.5 7.85786 4.5 12C4.5 16.1421 7.85786 19.5 12 19.5C16.1421 19.5 19.5 16.1421 19.5 12C19.5 7.85786 16.1421 4.5 12 4.5ZM3 12C3 7.02944 7.02944 3 12 3C16.9706 3 21 7.02944 21 12C21 16.9706 16.9706 21 12 21C7.02944 21 3 16.9706 3 12Z" fill="#6D778B"/>
</svg>
